<?xml version="1.0" encoding="UTF-8"?>
<!DOCTYPE svg PUBLIC "-//W3C//DTD SVG 1.1//EN" "http://www.w3.org/Graphics/SVG/1.1/DTD/svg11.dtd">
<!-- Creator: CorelDRAW -->
<svg xmlns="http://www.w3.org/2000/svg" xml:space="preserve" width="80.3348mm" height="80.577mm" version="1.1" style="shape-rendering:geometricPrecision; text-rendering:geometricPrecision; image-rendering:optimizeQuality; fill-rule:evenodd; clip-rule:evenodd"
viewBox="0 0 8033.48 8057.7"
 xmlns:xlink="http://www.w3.org/1999/xlink"
 xmlns:xodm="http://www.corel.com/coreldraw/odm/2003">
 <defs>
  <style type="text/css">
   <![CDATA[
    .fil1 {fill:#213637;fill-rule:nonzero}
    .fil0 {fill:#275052;fill-rule:nonzero}
   ]]>
  </style>
 </defs>
 <g id="Layer_x0020_1">
  <metadata id="CorelCorpID_0Corel-Layer"/>
  <polygon class="fil0" points="3789.99,1025.79 3789.99,1523.88 4245.67,1523.88 4245.67,1025.79 4376.27,1156.31 4698.46,834.13 4017.84,141.64 3337.2,834.13 3659.38,1156.31 "/>
  <polygon class="fil0" points="4245.67,7016.23 4245.67,6536.38 3789.99,6536.38 3789.99,7016.23 3659.38,6885.71 3337.19,7207.89 4017.83,7918.62 4698.45,7207.89 4376.27,6885.71 "/>
  <circle class="fil1" cx="4017.84" cy="4030.13" r="227.84"/>
  <path class="fil1" d="M5606.71 4158.07c7.99,-88.75 8.02,-166.78 0,-255.88l528.66 -305.28 -683.52 -1184.15 -533.33 308.16c-69.2,-47.83 -141.73,-89.89 -217.16,-125.93l0 -615.43 -1367.05 0 0 615.44c-75.43,36.05 -147.96,78.11 -217.16,125.94l-533.33 -308.16 -683.53 1184.15 528.67 305.28c-7.99,88.75 -8.02,166.77 0,255.88l-528.67 305.27 683.53 1184.16 533.33 -308.17c69.2,47.84 141.73,89.89 217.16,125.94l0 615.42 1367.05 -0.01 0 -615.44c75.43,-36.05 147.96,-78.11 217.16,-125.94l533.33 308.16 683.52 -1184.15 -528.66 -305.26zm-1588.87 555.59c-376.91,0 -683.53,-306.62 -683.53,-683.53 0,-376.91 306.62,-683.53 683.53,-683.53 376.91,0 683.52,306.62 683.52,683.53 0,376.91 -306.61,683.53 -683.52,683.53z"/>
  <polygon class="fil0" points="1738.76,2064.11 2090.97,2416.33 2413.15,2094.15 2060.94,1741.92 2245.61,1741.92 2245.61,1286.24 1283.08,1286.24 1283.08,2248.79 1738.76,2248.8 "/>
  <polygon class="fil0" points="6296.9,5977.9 5957.6,5638.6 5635.41,5960.76 5974.73,6300.08 5790.04,6300.08 5790.04,6755.76 6752.58,6755.76 6752.58,5793.22 6296.9,5793.22 "/>
  <polygon class="fil0" points="7204.7,3340.38 6882.52,3662.57 7013.04,3793.16 6533.2,3793.16 6533.2,4248.84 7013.04,4248.84 6882.52,4379.46 7204.7,4701.64 7900.3,4021 "/>
  <polygon class="fil0" points="1520.76,4248.84 1520.76,3793.16 1022.67,3793.16 1153.19,3662.56 831.01,3340.38 123.34,4021 831.01,4701.63 1153.19,4379.45 1022.67,4248.83 "/>
  <polygon class="fil0" points="2090.97,5625.68 1738.76,5977.9 1738.76,5793.23 1283.08,5793.22 1283.08,6755.76 2245.61,6755.76 2245.61,6300.08 2060.94,6300.08 2413.15,5947.86 "/>
  <polygon class="fil0" points="5957.6,2403.42 6296.9,2064.11 6296.9,2248.8 6752.58,2248.8 6752.58,1286.25 5790.04,1286.24 5790.04,1741.92 5974.73,1741.92 5635.41,2081.24 "/>
 </g>
</svg>
