<?xml version="1.0" encoding="UTF-8"?>
<!DOCTYPE svg PUBLIC "-//W3C//DTD SVG 1.1//EN" "http://www.w3.org/Graphics/SVG/1.1/DTD/svg11.dtd">
<!-- Creator: CorelDRAW -->
<svg xmlns="http://www.w3.org/2000/svg" xml:space="preserve" width="80.3348mm" height="80.577mm" version="1.1" style="shape-rendering:geometricPrecision; text-rendering:geometricPrecision; image-rendering:optimizeQuality; fill-rule:evenodd; clip-rule:evenodd"
viewBox="0 0 8033.48 8057.7"
 xmlns:xlink="http://www.w3.org/1999/xlink"
 xmlns:xodm="http://www.corel.com/coreldraw/odm/2003">
 <defs>
  <style type="text/css">
   <![CDATA[
    .fil1 {fill:#213637}
    .fil0 {fill:#275052}
   ]]>
  </style>
 </defs>
 <g id="Layer_x0020_1">
  <metadata id="CorelCorpID_0Corel-Layer"/>
  <path class="fil0" d="M7403.24 2090.89c-3.46,143.39 -122.26,256.99 -265.65,253.88 -143.39,-3.46 -256.99,-122.27 -253.87,-265.65l14.2 -625.51 -625.16 -14.19c-143.38,-3.46 -256.99,-122.26 -253.87,-265.65 3.46,-143.39 122.26,-256.99 265.65,-253.87l885.26 20.43c143.39,3.12 256.99,121.91 253.52,265.3l-20.08 885.26z"/>
  <path class="fil1" d="M1873.82 3110.88l0 4204.98c0,241.75 -195.68,437.43 -437.43,437.43l-710.35 0.01c-241.75,0 -437.43,-195.68 -437.43,-437.43l0 -4204.99c0,-241.4 195.68,-437.43 437.43,-437.43l710.35 -0.01c241.75,0 437.43,196.04 437.43,437.44z"/>
  <path class="fil1" d="M5781.3 5242.29l0 2073.58c0,116.02 -46.06,227.2 -128.14,309.29 -82.08,82.08 -193.26,128.14 -309.29,128.14l-710.36 0c-116.02,0 -227.2,-46.06 -309.29,-128.14 -82.08,-82.09 -128.14,-193.27 -128.14,-309.29l0 -2073.58c0,-116.02 46.06,-227.2 128.14,-309.28 82.09,-82.09 193.27,-128.15 309.29,-128.15l710.35 0c116.03,0 227.21,46.06 309.29,128.14 82.08,82.08 128.15,193.26 128.15,309.29l0 0z"/>
  <path class="fil1" d="M3827.57 4176.59l0 3139.27c0,241.75 -195.69,437.43 -437.44,437.43l-710.35 0.01c-241.75,0 -437.44,-195.68 -437.44,-437.43l0 -3139.28c0,-116.03 46.07,-227.2 128.15,-309.29 82.08,-82.08 193.26,-128.14 309.29,-128.14l710.35 -0.01c241.75,0 437.43,196.04 437.43,437.44l0.01 0z"/>
  <path class="fil1" d="M7735.04 4176.59l0 3139.27c0,241.75 -195.68,437.43 -437.43,437.43l-710.36 0.01c-241.75,0 -437.43,-195.68 -437.43,-437.43l0 -3139.28c0,-116.03 46.06,-227.2 128.14,-309.29 82.08,-82.08 193.26,-128.14 309.29,-128.14l710.35 -0.01c241.75,0 437.43,196.04 437.43,437.44l0.01 0z"/>
  <path class="fil0" d="M704.22 774.43c-114.99,-85.89 -138.19,-249.03 -51.95,-363.67 85.89,-114.64 248.67,-137.84 363.66,-51.95l2061.8 1546.43 979.12 0.01c80,0 155.16,36.71 204.34,99.4l792.09 1008.21 1835.64 -1915.63c99.05,-103.56 263.56,-107.02 367.12,-7.62 103.56,99.05 107.02,263.56 7.97,367.12l-2042.75 2131.41c-51.95,54.38 -125.03,83.47 -200.19,79.66 -75.15,-3.46 -145.12,-39.83 -191.53,-99.05l-898.76 -1143.98 -939.64 0c-56.11,0 -110.83,-18.01 -155.86,-51.96l-2131.06 -1598.38z"/>
 </g>
</svg>
