<?xml version="1.0" encoding="UTF-8"?>
<!DOCTYPE svg PUBLIC "-//W3C//DTD SVG 1.1//EN" "http://www.w3.org/Graphics/SVG/1.1/DTD/svg11.dtd">
<!-- Creator: CorelDRAW -->
<svg xmlns="http://www.w3.org/2000/svg" xml:space="preserve" width="80.3348mm" height="80.577mm" version="1.1" style="shape-rendering:geometricPrecision; text-rendering:geometricPrecision; image-rendering:optimizeQuality; fill-rule:evenodd; clip-rule:evenodd"
viewBox="0 0 8033.48 8057.7"
 xmlns:xlink="http://www.w3.org/1999/xlink"
 xmlns:xodm="http://www.corel.com/coreldraw/odm/2003"
 data-name="Layer 1">
 <defs>
  <style type="text/css">
   <![CDATA[
    .fil1 {fill:#213637}
    .fil0 {fill:#275052}
   ]]>
  </style>
 </defs>
 <g id="Layer_x0020_1">
  <metadata id="CorelCorpID_0Corel-Layer"/>
  <path class="fil0" d="M6761.23 6969.44c0,538.83 -439.47,978.28 -978.3,978.28 -538.83,0 -978.31,-439.47 -978.31,-978.28 0,-538.82 439.48,-978.31 978.31,-978.31 538.83,0 978.3,439.47 978.3,978.31zm-500.42 -376.32c-43.55,-43.71 -114.42,-43.71 -157.98,0l-491.79 491.62 -130.04 -225.61c-31.02,-53.4 -99.35,-71.71 -152.83,-40.85 -53.32,30.85 -71.72,99.19 -40.86,152.66l203.07 351.67c17.38,30.09 47.71,50.4 82.19,54.93 4.85,0.62 9.76,1.01 14.54,1.01 29.54,0 57.95,-11.7 79.02,-32.78l594.68 -594.59c43.63,-43.71 43.63,-114.42 0,-158.05l0 -0.01z"/>
  <path class="fil1" d="M1807.8 4036.69c0,-1222.37 990.93,-2213.3 2213.3,-2213.3 81.29,0 161.51,4.5 240.52,13.04l0 -1709.79 -891.94 0 -155.03 786.22 -832.34 345.26 -665.99 -446.61 -920.62 920.61 446.62 665.99 -345.27 832.35 -786.2 155.03 0 1301.94 786.2 155.01 345.27 832.34 -446.62 665.99 920.62 920.62 665.99 -446.64 832.34 345.26 155.03 786.22 891.93 0.01 0 -1709.31c-79,8.54 -159.23,13.05 -240.52,13.05 -1222.36,0 -2213.3,-990.93 -2213.3,-2213.29l0.01 0z"/>
  <path class="fil0" d="M6765.91 3000.08l764.13 0c150.41,0 273.47,-123.05 273.47,-273.47 0,-150.41 -123.06,-273.47 -273.47,-273.47l-764.13 0c-150.42,0 -273.47,123.05 -273.47,273.47 0,150.41 123.05,273.47 273.47,273.47l0 0z"/>
  <path class="fil0" d="M7634.9 3223.58l-1018.48 0c-150.42,0 -273.47,123.05 -273.47,273.47 0,150.42 123.05,273.47 273.47,273.47l1018.48 0.01c150.42,0 273.47,-123.06 273.47,-273.47 0,-150.42 -123.05,-273.47 -273.47,-273.47l0 -0.01z"/>
  <path class="fil0" d="M7524.48 3994.03l-877.31 0c-150.42,0 -273.47,123.05 -273.47,273.47 0,150.41 123.05,273.47 273.47,273.47l877.31 0c150.42,0 273.47,-123.05 273.47,-273.47 0,-150.41 -123.05,-273.47 -273.47,-273.47l0 0z"/>
  <path class="fil0" d="M7355.41 4764.47l-542.53 0c-130.56,0 -237.38,106.82 -237.38,237.38 0,130.57 106.82,237.37 237.38,237.37l542.53 0c130.56,0 237.38,-106.81 237.38,-237.37 0,-130.57 -106.82,-237.38 -237.38,-237.38z"/>
  <path class="fil0" d="M3840.62 2661.14l-344.1 0c-106.84,0 -194.22,87.41 -194.22,194.24l0 2362.63c0,106.83 87.38,194.24 194.22,194.24l344.1 0c106.83,0 194.22,-87.41 194.22,-194.24l0 -2362.63c0,-106.83 -87.39,-194.24 -194.22,-194.24z"/>
  <path class="fil0" d="M5491.77 913.61c-6.53,-77.51 49.93,-146.27 127.23,-154.95 852.78,-95.86 748.54,1235.32 614.12,1763.45 -25.85,101.55 -38.09,190.68 -40.57,295.42 -8.35,352.08 -97.83,733.37 -571.88,933.09 -66.95,22.03 -103.35,94.19 -81.32,161.15 22.05,66.95 94.19,103.35 161.14,81.32 190.4,-62.66 343.37,-162.75 464.68,-288.14 34.88,75.32 88.08,140.52 153.83,189.84 -103.38,91.18 -168.76,224.55 -168.76,372.71 0,202.59 122.21,377.48 296.68,454.73 -59.48,77.64 -94.89,174.62 -94.89,279.64 0,150.58 72.8,284.64 185,368.82 -463.47,44.26 -995.96,106.2 -1421.7,28.68 -334.97,-61.01 -443.32,-157.68 -857.05,-174.53 0.03,-2.28 0.07,-4.54 0.07,-6.83l0 -2362.62c0,-13.15 -0.64,-26.15 -1.83,-38.99 1108.73,-165.93 1330.46,-772.71 1235.26,-1902.78l-0.01 -0.01z"/>
 </g>
</svg>
