<?xml version="1.0" encoding="UTF-8"?>
<!DOCTYPE svg PUBLIC "-//W3C//DTD SVG 1.1//EN" "http://www.w3.org/Graphics/SVG/1.1/DTD/svg11.dtd">
<!-- Creator: CorelDRAW -->
<svg xmlns="http://www.w3.org/2000/svg" xml:space="preserve" width="26.3762mm" height="26.2941mm" version="1.1" style="shape-rendering:geometricPrecision; text-rendering:geometricPrecision; image-rendering:optimizeQuality; fill-rule:evenodd; clip-rule:evenodd"
viewBox="0 0 261.67 260.85"
 xmlns:xlink="http://www.w3.org/1999/xlink"
 xmlns:xodm="http://www.corel.com/coreldraw/odm/2003">
 <defs>
  <style type="text/css">
   <![CDATA[
    .fil0 {fill:#233738}
    .fil1 {fill:#FFCC00}
   ]]>
  </style>
 </defs>
 <g id="Layer_x0020_1">
  <metadata id="CorelCorpID_0Corel-Layer"/>
  <path class="fil0" d="M37.07 221.32c23.7,24.39 56.85,39.54 93.54,39.54 72.03,0 130.43,-58.39 130.43,-130.43 0,-12.74 -1.83,-25.06 -5.23,-36.7l-31.45 13.36c1.85,7.47 2.84,15.29 2.84,23.34 0,3.48 -0.18,6.92 -0.54,10.31 -5.15,48.49 -46.18,86.27 -96.04,86.27 -22.32,0 -42.87,-7.57 -59.22,-20.28l113.59 -48.28 0 -34.62 -136.22 57.9 -31.45 13.37 -17.31 7.36 0 34.62 37.07 -15.75z"/>
  <path class="fil1" d="M5.41 167.1l31.45 -13.37c-1.85,-7.46 -2.83,-15.27 -2.83,-23.31 0,-3.7 0.21,-7.36 0.61,-10.96 5.44,-48.18 46.33,-85.63 95.97,-85.63 22.08,0 42.44,7.41 58.71,19.88l-112.99 48.03 0 35.21 136.12 -57.85 31.45 -13.37 17.78 -7.55 0 -35.21 -37.94 16.13c-23.67,-24.13 -56.65,-39.1 -93.12,-39.1 -72.03,0 -130.43,58.4 -130.43,130.43 0,1.23 0.02,2.45 0.05,3.67 0.32,11.43 2.1,22.49 5.18,33.01z"/>
 </g>
</svg>
