<?xml version="1.0" encoding="UTF-8"?>
<!DOCTYPE svg PUBLIC "-//W3C//DTD SVG 1.1//EN" "http://www.w3.org/Graphics/SVG/1.1/DTD/svg11.dtd">
<!-- Creator: CorelDRAW -->
<svg xmlns="http://www.w3.org/2000/svg" xml:space="preserve" width="74.0008mm" height="26.2941mm" version="1.1" style="shape-rendering:geometricPrecision; text-rendering:geometricPrecision; image-rendering:optimizeQuality; fill-rule:evenodd; clip-rule:evenodd"
viewBox="0 0 2059.66 731.84"
 xmlns:xlink="http://www.w3.org/1999/xlink"
 xmlns:xodm="http://www.corel.com/coreldraw/odm/2003">
 <defs>
  <style type="text/css">
   <![CDATA[
    .fil1 {fill:#FFCC00}
    .fil2 {fill:white}
    .fil0 {fill:white;fill-rule:nonzero}
   ]]>
  </style>
 </defs>
 <g id="Layer_x0020_1">
  <metadata id="CorelCorpID_0Corel-Layer"/>
  <path class="fil0" d="M103.99 620.92c66.49,68.42 159.5,110.92 262.44,110.92 202.09,0 365.92,-163.83 365.92,-365.92 0,-35.75 -5.13,-70.31 -14.68,-102.97l-88.23 37.5c5.2,20.97 7.96,42.9 7.96,65.47 0,9.77 -0.52,19.42 -1.53,28.93 -14.45,136.05 -129.57,242.04 -269.45,242.04 -62.61,0 -120.27,-21.23 -166.15,-56.9l318.68 -135.45 0 -97.14 -382.17 162.43 -88.23 37.5 -48.57 20.64 0 97.14 103.99 -44.2z"/>
  <path class="fil1" d="M15.17 468.82l88.23 -37.5c-5.19,-20.94 -7.94,-42.84 -7.94,-65.39 0,-10.39 0.58,-20.65 1.72,-30.74 15.26,-135.18 129.99,-240.23 269.25,-240.23 61.96,0 119.06,20.8 164.71,55.79l-317.01 134.74 0 98.77 381.89 -162.32 88.23 -37.5 49.88 -21.19 0 -98.78 -106.45 45.24c-66.41,-67.7 -158.92,-109.7 -261.25,-109.7 -202.09,0 -365.92,163.83 -365.92,365.92 0,3.45 0.05,6.87 0.14,10.29 0.89,32.07 5.9,63.11 14.52,92.61z"/>
  <path class="fil0" d="M935.57 257.55l106.48 0 0 58.56 -167.32 0 0 -266.19 165.41 0 0 58.56 -104.57 0 0 44.11 95.07 0 0 57.8 -95.07 0 0 47.16zm276.84 -207.63l57.04 0 0 266.19 -57.04 0 0 -17.87c-13.43,15.46 -32.32,23.19 -56.66,23.19 -25.09,0 -46.52,-9.69 -64.26,-29.09 -17.75,-19.39 -26.62,-43.16 -26.62,-71.3 0,-28.14 8.87,-51.91 26.62,-71.3 17.74,-19.39 39.17,-29.09 64.26,-29.09 24.34,0 43.23,7.73 56.66,23.19l0 -93.93zm-77.96 204.96c8.37,8.37 19.27,12.55 32.71,12.55 13.44,0 24.33,-4.18 32.71,-12.55 8.37,-8.37 12.54,-19.64 12.54,-33.84 0,-14.2 -4.18,-25.48 -12.54,-33.84 -8.37,-8.37 -19.27,-12.55 -32.71,-12.55 -13.44,0 -24.33,4.18 -32.71,12.55 -8.36,8.37 -12.54,19.64 -12.54,33.84 0,14.2 4.18,25.47 12.54,33.84zm229.5 -155.72c-6.72,6.72 -14.77,10.08 -24.15,10.08 -9.38,0 -17.43,-3.36 -24.15,-10.08 -6.72,-6.72 -10.08,-14.77 -10.08,-24.15 0,-9.39 3.37,-17.43 10.08,-24.15 6.72,-6.72 14.77,-10.08 24.15,-10.08 9.38,0 17.42,3.36 24.15,10.08 6.72,6.72 10.08,14.76 10.08,24.15 0,9.38 -3.36,17.43 -10.08,24.15zm-52.67 216.95l0 -190.14 57.04 0 0 190.14 -57.04 0zm210.29 -135.38l-39.17 0 0 67.31c0,7.6 3.04,12.42 9.13,14.45 6.09,2.03 16.1,2.66 30.04,1.9l0 51.72c-36.25,3.8 -61.35,0.31 -75.29,-10.46 -13.95,-10.77 -20.92,-29.98 -20.92,-57.61l0 -67.31 -30.42 0 0 -54.76 30.42 0 0 -36.12 57.04 -17.11 0 53.24 39.17 0 0 54.76zm84.99 -81.57c-6.72,6.72 -14.77,10.08 -24.15,10.08 -9.38,0 -17.43,-3.36 -24.15,-10.08 -6.72,-6.72 -10.08,-14.77 -10.08,-24.15 0,-9.39 3.37,-17.43 10.08,-24.15 6.72,-6.72 14.77,-10.08 24.15,-10.08 9.38,0 17.43,3.36 24.15,10.08 6.72,6.72 10.08,14.76 10.08,24.15 0,9.38 -3.36,17.43 -10.08,24.15zm-52.67 216.95l0 -190.14 57.04 0 0 190.14 -57.04 0zm261.63 -23.77c-19.52,19.39 -43.36,29.09 -71.49,29.09 -28.14,0 -51.97,-9.69 -71.49,-29.09 -19.52,-19.39 -29.28,-43.16 -29.28,-71.3 0,-28.14 9.76,-51.91 29.28,-71.3 19.52,-19.39 43.35,-29.09 71.49,-29.09 28.14,0 51.97,9.69 71.49,29.09 19.52,19.39 29.28,43.16 29.28,71.3 0,28.14 -9.76,51.91 -29.28,71.3zm-102.68 -38.98c8.37,8.37 18.77,12.54 31.19,12.54 12.42,0 22.82,-4.18 31.18,-12.54 8.36,-8.37 12.55,-19.14 12.55,-32.32 0,-13.18 -4.19,-23.95 -12.55,-32.33 -8.37,-8.37 -18.76,-12.54 -31.18,-12.54 -12.42,0 -22.81,4.18 -31.19,12.54 -8.36,8.37 -12.54,19.14 -12.54,32.33 0,13.18 4.18,23.95 12.54,32.32zm275.7 -132.71c20.28,0 37.2,6.97 50.76,20.91 13.57,13.95 20.35,33.21 20.35,57.8l0 116.75 -57.04 0 0 -108.38c0,-11.15 -3.11,-19.71 -9.32,-25.66 -6.21,-5.96 -14.13,-8.94 -23.77,-8.94 -10.9,0 -19.52,3.3 -25.86,9.89 -6.34,6.59 -9.5,16.35 -9.5,29.28l0 103.82 -57.04 0 0 -190.14 57.04 0 0 17.87c11.41,-15.47 29.53,-23.19 54.38,-23.19z"/>
  <path class="fil0" d="M934.14 642.29l0 4.46c0,8.26 -2.64,14.95 -7.93,20.08 -5.29,5.13 -12.12,7.69 -20.49,7.69 -8.93,0 -16.33,-2.91 -22.19,-8.72 -5.86,-5.81 -8.8,-12.91 -8.8,-21.28 0,-8.43 2.91,-15.56 8.72,-21.41 5.81,-5.84 13.01,-8.76 21.61,-8.76 5.4,0 10.33,1.23 14.79,3.68 4.46,2.45 7.94,5.71 10.42,9.8l-9.75 5.62c-1.38,-2.37 -3.46,-4.3 -6.24,-5.78 -2.78,-1.49 -5.88,-2.23 -9.3,-2.23 -5.51,0 -10.04,1.8 -13.6,5.41 -3.55,3.61 -5.33,8.16 -5.33,13.68 0,5.46 1.81,9.96 5.41,13.51 3.61,3.55 8.39,5.33 14.34,5.33 4.4,0 8.05,-0.98 10.95,-2.93 2.9,-1.96 4.87,-4.64 5.91,-8.06l-17.52 0 0 -10.08 29 0zm16.62 14.79c1.43,5.18 5.31,7.77 11.65,7.77 4.08,0 7.16,-1.37 9.26,-4.12l8.59 4.95c-4.07,5.9 -10.08,8.85 -18.01,8.85 -6.84,0 -12.31,-2.07 -16.45,-6.2 -4.14,-4.13 -6.2,-9.33 -6.2,-15.62 0,-6.22 2.04,-11.42 6.12,-15.57 4.07,-4.16 9.31,-6.25 15.7,-6.25 6.06,0 11.06,2.1 15,6.28 3.94,4.19 5.91,9.37 5.91,15.54 0,1.38 -0.13,2.84 -0.41,4.38l-31.15 0zm-0.17 -8.26l21.08 0c-0.61,-2.81 -1.86,-4.9 -3.76,-6.28 -1.9,-1.38 -4.07,-2.07 -6.49,-2.07 -2.86,0 -5.23,0.73 -7.1,2.19 -1.87,1.46 -3.11,3.51 -3.72,6.16zm62.15 -17.94c4.52,0 8.26,1.51 11.2,4.55 2.95,3.03 4.42,7.22 4.42,12.56l0 25.37 -10.66 0 0 -24.05c0,-2.75 -0.75,-4.85 -2.23,-6.32 -1.49,-1.46 -3.47,-2.2 -5.96,-2.2 -2.75,0 -4.95,0.86 -6.61,2.57 -1.65,1.71 -2.48,4.27 -2.48,7.68l0 22.31 -10.67 0 0 -41.32 10.67 0 0 4.63c2.59,-3.85 6.69,-5.79 12.31,-5.79zm33.72 26.2c1.43,5.18 5.31,7.77 11.65,7.77 4.08,0 7.16,-1.37 9.26,-4.12l8.59 4.95c-4.07,5.9 -10.08,8.85 -18.01,8.85 -6.84,0 -12.31,-2.07 -16.45,-6.2 -4.13,-4.13 -6.2,-9.33 -6.2,-15.62 0,-6.22 2.05,-11.42 6.12,-15.57 4.07,-4.16 9.31,-6.25 15.7,-6.25 6.06,0 11.06,2.1 15,6.28 3.94,4.19 5.91,9.37 5.91,15.54 0,1.38 -0.13,2.84 -0.41,4.38l-31.15 0zm-0.17 -8.26l21.08 0c-0.61,-2.81 -1.86,-4.9 -3.76,-6.28 -1.9,-1.38 -4.07,-2.07 -6.49,-2.07 -2.87,0 -5.23,0.73 -7.11,2.19 -1.87,1.46 -3.11,3.51 -3.72,6.16zm49.84 -9.67c0.99,-2.64 2.64,-4.63 4.92,-5.94 2.28,-1.33 4.83,-1.99 7.64,-1.99l0 11.9c-3.25,-0.39 -6.16,0.27 -8.71,1.98 -2.56,1.71 -3.84,4.55 -3.84,8.51l0 19.76 -10.66 0 0 -41.32 10.66 0 0 7.1zm48.59 -7.1l10.66 0 0 41.32 -10.66 0 0 -4.88c-3.19,4.02 -7.68,6.03 -13.47,6.03 -5.51,0 -10.24,-2.1 -14.18,-6.32 -3.94,-4.21 -5.91,-9.38 -5.91,-15.5 0,-6.11 1.97,-11.28 5.91,-15.49 3.94,-4.21 8.66,-6.33 14.18,-6.33 5.78,0 10.28,2.02 13.47,6.04l0 -4.88zm-19.67 29.05c2.15,2.18 4.87,3.27 8.18,3.27 3.31,0 6.05,-1.09 8.22,-3.27 2.18,-2.17 3.27,-4.97 3.27,-8.39 0,-3.42 -1.09,-6.2 -3.27,-8.39 -2.17,-2.18 -4.92,-3.26 -8.22,-3.26 -3.3,0 -6.03,1.09 -8.18,3.26 -2.15,2.18 -3.22,4.97 -3.22,8.39 0,3.42 1.07,6.22 3.22,8.39zm40 12.27l0 -60.33 10.67 0 0 60.33 -10.67 0zm69.02 1.16c-8.71,0 -15.89,-2.9 -21.57,-8.68 -5.67,-5.78 -8.51,-12.91 -8.51,-21.4 0,-8.54 2.84,-15.7 8.51,-21.45 5.68,-5.76 12.87,-8.64 21.57,-8.64 5.23,0 10.07,1.23 14.5,3.68 4.44,2.45 7.89,5.78 10.37,9.96l-9.83 5.7c-1.43,-2.59 -3.47,-4.61 -6.11,-6.08 -2.65,-1.46 -5.62,-2.18 -8.93,-2.18 -5.62,0 -10.16,1.76 -13.59,5.28 -3.45,3.53 -5.17,8.1 -5.17,13.72 0,5.56 1.72,10.11 5.17,13.64 3.44,3.53 7.98,5.29 13.59,5.29 3.31,0 6.29,-0.73 8.96,-2.2 2.68,-1.45 4.7,-3.45 6.08,-5.98l9.83 5.7c-2.48,4.18 -5.92,7.51 -10.33,9.95 -4.41,2.46 -9.25,3.68 -14.55,3.68zm66.85 -6.32c-4.24,4.22 -9.42,6.32 -15.54,6.32 -6.11,0 -11.28,-2.1 -15.49,-6.32 -4.22,-4.21 -6.33,-9.38 -6.33,-15.5 0,-6.11 2.11,-11.28 6.33,-15.49 4.22,-4.21 9.38,-6.33 15.49,-6.33 6.12,0 11.3,2.12 15.54,6.33 4.24,4.21 6.37,9.38 6.37,15.49 0,6.12 -2.12,11.29 -6.37,15.5zm-23.5 -7.31c2.12,2.15 4.78,3.22 7.97,3.22 3.2,0 5.87,-1.08 8.02,-3.22 2.14,-2.15 3.22,-4.88 3.22,-8.19 0,-3.3 -1.07,-6.03 -3.22,-8.18 -2.15,-2.15 -4.82,-3.22 -8.02,-3.22 -3.19,0 -5.85,1.08 -7.97,3.22 -2.13,2.15 -3.19,4.87 -3.19,8.18 0,3.31 1.06,6.04 3.19,8.19zm60.37 -30.01c4.52,0 8.26,1.51 11.2,4.55 2.95,3.03 4.42,7.22 4.42,12.56l0 25.37 -10.66 0 0 -24.05c0,-2.75 -0.75,-4.85 -2.23,-6.32 -1.49,-1.46 -3.47,-2.2 -5.96,-2.2 -2.75,0 -4.95,0.86 -6.61,2.57 -1.65,1.71 -2.48,4.27 -2.48,7.68l0 22.31 -10.67 0 0 -41.32 10.67 0 0 4.63c2.59,-3.85 6.69,-5.79 12.31,-5.79zm48.35 11.41l-9.34 0 0 17.19c0,1.43 0.36,2.48 1.07,3.14 0.72,0.67 1.77,1.04 3.14,1.12 1.38,0.08 3.09,0.07 5.13,-0.05l0 9.67c-7.33,0.83 -12.49,0.13 -15.5,-2.07 -3,-2.2 -4.5,-6.14 -4.5,-11.82l0 -17.19 -7.19 0 0 -10.25 7.19 0 0 -8.35 10.65 -3.22 0 11.57 9.34 0 0 10.25zm18.84 -3.15c0.99,-2.64 2.63,-4.63 4.92,-5.94 2.29,-1.33 4.84,-1.99 7.64,-1.99l0 11.9c-3.25,-0.39 -6.16,0.27 -8.72,1.98 -2.56,1.71 -3.84,4.55 -3.84,8.51l0 19.76 -10.67 0 0 -41.32 10.67 0 0 7.1zm48.59 -7.1l10.66 0 0 41.32 -10.66 0 0 -4.88c-3.2,4.02 -7.69,6.03 -13.47,6.03 -5.51,0 -10.24,-2.1 -14.18,-6.32 -3.94,-4.21 -5.91,-9.38 -5.91,-15.5 0,-6.11 1.97,-11.28 5.91,-15.49 3.94,-4.21 8.66,-6.33 14.18,-6.33 5.78,0 10.28,2.02 13.47,6.04l0 -4.88zm-19.67 29.05c2.15,2.18 4.87,3.27 8.18,3.27 3.3,0 6.05,-1.09 8.22,-3.27 2.18,-2.17 3.27,-4.97 3.27,-8.39 0,-3.42 -1.09,-6.2 -3.27,-8.39 -2.17,-2.18 -4.92,-3.26 -8.22,-3.26 -3.31,0 -6.03,1.09 -8.18,3.26 -2.15,2.18 -3.22,4.97 -3.22,8.39 0,3.42 1.07,6.22 3.22,8.39zm59.67 13.43c-6.22,0 -11.42,-2.1 -15.57,-6.29 -4.16,-4.18 -6.25,-9.36 -6.25,-15.54 0,-6.17 2.08,-11.35 6.25,-15.54 4.16,-4.18 9.35,-6.28 15.57,-6.28 4.02,0 7.68,0.97 10.99,2.89 3.31,1.93 5.81,4.53 7.52,7.77l-9.17 5.37c-0.83,-1.71 -2.08,-3.06 -3.76,-4.05 -1.68,-0.99 -3.57,-1.48 -5.66,-1.48 -3.2,0 -5.84,1.06 -7.93,3.18 -2.1,2.13 -3.14,4.83 -3.14,8.14 0,3.26 1.04,5.94 3.14,8.06 2.1,2.12 4.74,3.18 7.93,3.18 2.15,0 4.07,-0.48 5.74,-1.44 1.68,-0.97 2.93,-2.3 3.76,-4.01l9.25 5.28c-1.81,3.26 -4.38,5.86 -7.69,7.81 -3.31,1.95 -6.97,2.94 -10.99,2.94zm47.94 -32.23l-9.34 0 0 17.19c0,1.43 0.36,2.48 1.07,3.14 0.72,0.67 1.77,1.04 3.14,1.12 1.38,0.08 3.09,0.07 5.13,-0.05l0 9.67c-7.33,0.83 -12.49,0.13 -15.5,-2.07 -3,-2.2 -4.5,-6.14 -4.5,-11.82l0 -17.19 -7.19 0 0 -10.25 7.19 0 0 -8.35 10.65 -3.22 0 11.57 9.34 0 0 10.25zm12.81 -15.21c-1.76,0 -3.29,-0.65 -4.58,-1.94 -1.3,-1.3 -1.95,-2.83 -1.95,-4.59 0,-1.76 0.65,-3.3 1.95,-4.62 1.29,-1.32 2.82,-1.98 4.58,-1.98 1.82,0 3.37,0.66 4.67,1.98 1.29,1.32 1.94,2.86 1.94,4.62 0,1.76 -0.65,3.29 -1.94,4.59 -1.3,1.29 -2.85,1.94 -4.67,1.94zm-5.29 46.28l0 -41.32 10.66 0 0 41.32 -10.66 0zm43.39 -42.48c4.52,0 8.25,1.51 11.2,4.55 2.95,3.03 4.42,7.22 4.42,12.56l0 25.37 -10.66 0 0 -24.05c0,-2.75 -0.75,-4.85 -2.23,-6.32 -1.49,-1.46 -3.47,-2.2 -5.95,-2.2 -2.75,0 -4.95,0.86 -6.61,2.57 -1.65,1.71 -2.48,4.27 -2.48,7.68l0 22.31 -10.66 0 0 -41.32 10.66 0 0 4.63c2.59,-3.85 6.69,-5.79 12.31,-5.79zm56.36 1.16l10.42 0 0 39.34c0,6.4 -2.11,11.26 -6.33,14.63 -4.21,3.37 -9.3,5.04 -15.24,5.04 -4.46,0 -8.39,-0.85 -11.78,-2.56 -3.39,-1.71 -5.99,-4.22 -7.81,-7.52l9.09 -5.21c2.1,3.86 5.71,5.78 10.83,5.78 3.37,0 6.01,-0.88 7.94,-2.64 1.92,-1.76 2.89,-4.27 2.89,-7.52l0 -4.46c-3.14,4.19 -7.54,6.28 -13.22,6.28 -5.83,0 -10.73,-2.05 -14.67,-6.16 -3.94,-4.1 -5.91,-9.1 -5.91,-15 0,-5.84 1.98,-10.83 5.96,-14.96 3.96,-4.13 8.84,-6.2 14.62,-6.2 5.68,0 10.08,2.1 13.22,6.28l0 -5.12zm-19.87 28.14c2.17,2.12 4.94,3.18 8.31,3.18 3.36,0 6.13,-1.06 8.31,-3.18 2.17,-2.13 3.26,-4.83 3.26,-8.14 0,-3.25 -1.09,-5.94 -3.26,-8.05 -2.18,-2.12 -4.95,-3.19 -8.31,-3.19 -3.37,0 -6.13,1.07 -8.31,3.19 -2.18,2.12 -3.27,4.8 -3.27,8.05 0,3.31 1.09,6.02 3.27,8.14zm88.55 14.34c-8.71,0 -15.9,-2.9 -21.57,-8.68 -5.67,-5.78 -8.51,-12.91 -8.51,-21.4 0,-8.54 2.84,-15.7 8.51,-21.45 5.68,-5.76 12.86,-8.64 21.57,-8.64 5.23,0 10.06,1.23 14.5,3.68 4.44,2.45 7.89,5.78 10.37,9.96l-9.84 5.7c-1.43,-2.59 -3.47,-4.61 -6.11,-6.08 -2.65,-1.46 -5.62,-2.18 -8.92,-2.18 -5.62,0 -10.16,1.76 -13.6,5.28 -3.45,3.53 -5.17,8.1 -5.17,13.72 0,5.56 1.72,10.11 5.17,13.64 3.44,3.53 7.98,5.29 13.6,5.29 3.3,0 6.29,-0.73 8.96,-2.2 2.68,-1.45 4.7,-3.45 6.07,-5.98l9.84 5.7c-2.48,4.18 -5.92,7.51 -10.33,9.95 -4.41,2.46 -9.25,3.68 -14.54,3.68zm66.85 -6.32c-4.24,4.22 -9.42,6.32 -15.54,6.32 -6.11,0 -11.28,-2.1 -15.49,-6.32 -4.21,-4.21 -6.33,-9.38 -6.33,-15.5 0,-6.11 2.11,-11.28 6.33,-15.49 4.22,-4.21 9.38,-6.33 15.49,-6.33 6.12,0 11.3,2.12 15.54,6.33 4.25,4.21 6.37,9.38 6.37,15.49 0,6.12 -2.12,11.29 -6.37,15.5zm-23.5 -7.31c2.12,2.15 4.78,3.22 7.97,3.22 3.2,0 5.87,-1.08 8.02,-3.22 2.14,-2.15 3.22,-4.88 3.22,-8.19 0,-3.3 -1.07,-6.03 -3.22,-8.18 -2.15,-2.15 -4.82,-3.22 -8.02,-3.22 -3.19,0 -5.85,1.08 -7.97,3.22 -2.13,2.15 -3.19,4.87 -3.19,8.18 0,3.31 1.06,6.04 3.19,8.19zm83.1 -30.01c4.74,0 8.52,1.55 11.36,4.63 2.84,3.08 4.25,7.22 4.25,12.4l0 25.45 -10.66 0 0 -24.71c0,-2.49 -0.6,-4.41 -1.81,-5.79 -1.22,-1.37 -2.93,-2.07 -5.13,-2.07 -2.42,0 -4.31,0.8 -5.66,2.4 -1.34,1.6 -2.02,3.91 -2.02,6.94l0 23.22 -10.66 0 0 -24.71c0,-2.49 -0.6,-4.41 -1.81,-5.79 -1.22,-1.37 -2.93,-2.07 -5.13,-2.07 -2.37,0 -4.25,0.8 -5.66,2.4 -1.41,1.6 -2.11,3.91 -2.11,6.94l0 23.22 -10.66 0 0 -41.32 10.66 0 0 4.38c2.48,-3.69 6.3,-5.54 11.49,-5.54 5.07,0 8.81,1.99 11.24,5.96 2.76,-3.97 6.86,-5.96 12.31,-5.96zm48.76 0c5.57,0 10.32,2.12 14.26,6.33 3.94,4.21 5.91,9.38 5.91,15.49 0,6.12 -1.97,11.29 -5.91,15.5 -3.94,4.22 -8.7,6.32 -14.26,6.32 -5.78,0 -10.25,-2.01 -13.39,-6.03l0 21.41 -10.66 0 0 -57.85 10.66 0 0 4.88c3.14,-4.02 7.6,-6.04 13.39,-6.04zm-10.16 30.21c2.15,2.18 4.87,3.27 8.18,3.27 3.31,0 6.05,-1.09 8.22,-3.27 2.18,-2.17 3.27,-4.97 3.27,-8.39 0,-3.42 -1.09,-6.2 -3.27,-8.39 -2.17,-2.18 -4.92,-3.26 -8.22,-3.26 -3.31,0 -6.03,1.09 -8.18,3.26 -2.15,2.18 -3.22,4.97 -3.22,8.39 0,3.42 1.07,6.22 3.22,8.39zm69.26 -29.05l10.67 0 0 41.32 -10.67 0 0 -4.88c-3.19,4.02 -7.68,6.03 -13.47,6.03 -5.51,0 -10.24,-2.1 -14.18,-6.32 -3.94,-4.21 -5.91,-9.38 -5.91,-15.5 0,-6.11 1.97,-11.28 5.91,-15.49 3.94,-4.21 8.66,-6.33 14.18,-6.33 5.78,0 10.28,2.02 13.47,6.04l0 -4.88zm-19.67 29.05c2.15,2.18 4.87,3.27 8.18,3.27 3.31,0 6.05,-1.09 8.22,-3.27 2.18,-2.17 3.27,-4.97 3.27,-8.39 0,-3.42 -1.09,-6.2 -3.27,-8.39 -2.17,-2.18 -4.92,-3.26 -8.22,-3.26 -3.3,0 -6.03,1.09 -8.18,3.26 -2.15,2.18 -3.22,4.97 -3.22,8.39 0,3.42 1.07,6.22 3.22,8.39zm62.97 -30.21c4.52,0 8.26,1.51 11.2,4.55 2.95,3.03 4.42,7.22 4.42,12.56l0 25.37 -10.66 0 0 -24.05c0,-2.75 -0.75,-4.85 -2.23,-6.32 -1.49,-1.46 -3.47,-2.2 -5.96,-2.2 -2.75,0 -4.95,0.86 -6.61,2.57 -1.65,1.71 -2.48,4.27 -2.48,7.68l0 22.31 -10.67 0 0 -41.32 10.67 0 0 4.63c2.59,-3.85 6.69,-5.79 12.31,-5.79zm50.75 1.16l11.4 0 -15.07 41.39c-2.15,5.89 -5,10.19 -8.54,12.86 -3.55,2.67 -7.95,3.87 -13.24,3.6l0 -9.92c2.86,0.05 5.13,-0.55 6.81,-1.82 1.69,-1.26 3.02,-3.3 4.02,-6.11l-16.95 -40 11.66 0 10.77 27.77 9.15 -27.77z"/>
  <path class="fil2" d="M2000.15 389.65l57.04 0 0 190.14 -57.04 0 0 -17.87c-13.43,15.46 -32.33,23.2 -56.66,23.2 -25.09,0 -46.52,-9.7 -64.27,-29.09 -17.75,-19.39 -26.61,-43.17 -26.61,-71.31 0,-28.14 8.86,-51.91 26.61,-71.3 17.75,-19.39 39.17,-29.09 64.27,-29.09 24.34,0 43.23,7.73 56.66,23.19l0 -17.87zm-77.95 128.91c8.37,8.36 19.26,12.55 32.7,12.55 13.43,0 24.34,-4.19 32.7,-12.55 8.37,-8.37 12.55,-19.65 12.55,-33.85 0,-14.2 -4.18,-25.48 -12.55,-33.84 -8.37,-8.36 -19.27,-12.55 -32.7,-12.55 -13.44,0 -24.34,4.18 -32.7,12.55 -8.37,8.36 -12.55,19.64 -12.55,33.84 0,14.19 4.18,25.48 12.55,33.85z"/>
  <polygon class="fil2" points="1763.24,579.79 1763.24,389.65 1820.28,389.65 1820.28,579.79 "/>
  <path class="fil2" d="M1640.03 384.33c25.09,0 46.52,9.7 64.27,29.09 17.75,19.39 26.62,43.16 26.62,71.3 0,28.14 -8.87,51.91 -26.62,71.31 -17.75,19.39 -39.17,29.09 -64.27,29.09 -24.34,0 -43.22,-7.73 -56.66,-23.2l0 17.87 -57.04 0 0 -234.2 57.04 0 0 61.93c13.44,-15.46 32.33,-23.19 56.66,-23.19zm-43.92 134.24c8.49,8.36 19.33,12.55 32.51,12.55 13.18,0 24.02,-4.19 32.52,-12.55 8.49,-8.37 12.73,-19.65 12.73,-33.85 0,-14.2 -4.24,-25.48 -12.73,-33.84 -8.5,-8.36 -19.34,-12.55 -32.52,-12.55 -13.18,0 -24.01,4.18 -32.51,12.55 -8.5,8.36 -12.74,19.64 -12.74,33.84 0,14.19 4.24,25.48 12.74,33.85z"/>
  <path class="fil2" d="M1427.46 389.65l57.04 0 0 190.14 -57.04 0 0 -17.87c-13.43,15.46 -32.33,23.2 -56.66,23.2 -25.09,0 -46.51,-9.7 -64.26,-29.09 -17.75,-19.39 -26.62,-43.17 -26.62,-71.31 0,-28.14 8.87,-51.91 26.62,-71.3 17.75,-19.39 39.17,-29.09 64.26,-29.09 24.34,0 43.23,7.73 56.66,23.19l0 -17.87zm-77.95 128.91c8.37,8.36 19.26,12.55 32.7,12.55 13.43,0 24.34,-4.19 32.7,-12.55 8.37,-8.37 12.55,-19.65 12.55,-33.85 0,-14.2 -4.18,-25.48 -12.55,-33.84 -8.37,-8.36 -19.27,-12.55 -32.7,-12.55 -13.44,0 -24.34,4.18 -32.7,12.55 -8.37,8.36 -12.55,19.64 -12.55,33.84 0,14.19 4.18,25.48 12.55,33.85z"/>
  <path class="fil2" d="M1211.47 423.5c3.55,-12.17 10.71,-21.49 21.49,-27.96 10.77,-6.47 22.63,-9.69 35.55,-9.69l0 64.64c-13.94,-2.28 -26.94,0.06 -38.98,7.04 -12.04,6.97 -18.06,19.08 -18.06,36.32l0 85.94 -57.04 0 0 -190.14 57.04 0 0 33.85z"/>
  <path class="fil2" d="M1071.27 579.79l-14.26 -41.83 -102.42 0 -13.31 41.83 -66.55 0 79.64 -234.2 99.35 0 79.8 234.2 -62.24 0zm-98.23 -98.87l64.51 0 -33.33 -97.74 -31.18 97.74z"/>
 </g>
</svg>
