<?xml version="1.0" encoding="UTF-8"?>
<!DOCTYPE svg PUBLIC "-//W3C//DTD SVG 1.1//EN" "http://www.w3.org/Graphics/SVG/1.1/DTD/svg11.dtd">
<!-- Creator: CorelDRAW -->
<svg xmlns="http://www.w3.org/2000/svg" xml:space="preserve" width="74.0008mm" height="26.2941mm" version="1.1" style="shape-rendering:geometricPrecision; text-rendering:geometricPrecision; image-rendering:optimizeQuality; fill-rule:evenodd; clip-rule:evenodd"
viewBox="0 0 4637.88 1647.94"
 xmlns:xlink="http://www.w3.org/1999/xlink"
 xmlns:xodm="http://www.corel.com/coreldraw/odm/2003">
 <defs>
  <style type="text/css">
   <![CDATA[
    .fil0 {fill:#233738}
    .fil1 {fill:#FFCC00}
    .fil2 {fill:#233738;fill-rule:nonzero}
   ]]>
  </style>
 </defs>
 <g id="Layer_x0020_1">
  <metadata id="CorelCorpID_0Corel-Layer"/>
  <g id="_2338948125888">
   <path class="fil0" d="M234.16 1398.17c149.73,154.06 359.16,249.77 590.95,249.77 455.06,0 823.97,-368.9 823.97,-823.97 0,-80.51 -11.54,-158.32 -33.07,-231.87l-198.67 84.43c11.71,47.21 17.93,96.6 17.93,147.43 0,22.01 -1.17,43.74 -3.43,65.15 -32.53,306.36 -291.76,545.01 -606.73,545.01 -140.99,0 -270.81,-47.81 -374.12,-128.12l717.59 -305 0 -218.74 -860.56 365.76 -198.66 84.44 -109.36 46.48 0 218.74 234.16 -99.53z"/>
   <path class="fil1" d="M34.16 1055.67l198.67 -84.45c-11.69,-47.15 -17.89,-96.47 -17.89,-147.24 0,-23.4 1.32,-46.5 3.88,-69.22 34.37,-304.4 292.7,-540.95 606.28,-540.95 139.52,0 268.1,46.83 370.88,125.62l-713.83 303.41 0 222.42 859.93 -365.5 198.67 -84.45 112.32 -47.73 0 -222.43 -239.69 101.88c-149.53,-152.45 -357.86,-247.03 -588.28,-247.03 -455.06,0 -823.97,368.91 -823.97,823.97 0,7.76 0.11,15.47 0.32,23.17 1.99,72.21 13.28,142.11 32.7,208.53z"/>
   <path class="fil2" d="M2106.68 579.94l239.76 0 0 131.87 -376.76 0 0 -599.4 372.47 0 0 131.87 -235.48 0 0 99.32 214.07 0 0 130.15 -214.07 0 0 106.19zm623.37 -467.53l128.44 0 0 599.4 -128.44 0 0 -40.25c-30.25,34.82 -72.77,52.23 -127.58,52.23 -56.51,0 -104.75,-21.83 -144.71,-65.5 -39.96,-43.67 -59.93,-97.19 -59.93,-160.55 0,-63.37 19.97,-116.89 59.93,-160.55 39.95,-43.67 88.2,-65.5 144.71,-65.5 54.81,0 97.34,17.4 127.58,52.23l0 -211.5zm-175.54 461.53c18.85,18.86 43.39,28.27 73.65,28.27 30.26,0 54.8,-9.41 73.65,-28.27 18.84,-18.84 28.25,-44.23 28.25,-76.2 0,-31.98 -9.41,-57.37 -28.25,-76.21 -18.85,-18.85 -43.38,-28.25 -73.65,-28.25 -30.26,0 -54.8,9.41 -73.65,28.25 -18.83,18.84 -28.24,44.23 -28.24,76.21 0,31.97 9.41,57.36 28.24,76.2zm516.78 -350.64c-15.14,15.14 -33.25,22.7 -54.38,22.7 -21.12,0 -39.25,-7.56 -54.38,-22.7 -15.12,-15.12 -22.7,-33.25 -22.7,-54.37 0,-21.13 7.58,-39.25 22.7,-54.38 15.12,-15.12 33.25,-22.69 54.38,-22.69 21.12,0 39.23,7.57 54.38,22.69 15.12,15.13 22.69,33.24 22.69,54.38 0,21.12 -7.56,39.25 -22.69,54.37zm-118.6 488.52l0 -428.15 128.44 0 0 428.15 -128.44 0zm473.53 -304.84l-88.2 0 0 151.56c0,17.12 6.86,27.98 20.55,32.54 13.71,4.56 36.26,5.99 67.65,4.27l0 116.47c-81.63,8.57 -138.14,0.7 -169.54,-23.55 -31.41,-24.26 -47.1,-67.52 -47.1,-129.73l0 -151.56 -68.5 0 0 -123.3 68.5 0 0 -81.34 128.44 -38.53 0 119.88 88.2 0 0 123.3zm191.39 -183.68c-15.14,15.14 -33.25,22.7 -54.38,22.7 -21.12,0 -39.25,-7.56 -54.38,-22.7 -15.12,-15.12 -22.7,-33.25 -22.7,-54.37 0,-21.13 7.58,-39.25 22.7,-54.38 15.12,-15.12 33.25,-22.69 54.38,-22.69 21.12,0 39.24,7.57 54.38,22.69 15.12,15.13 22.69,33.24 22.69,54.38 0,21.12 -7.56,39.25 -22.69,54.37zm-118.6 488.52l0 -428.15 128.44 0 0 428.15 -128.44 0zm589.14 -53.52c-43.96,43.67 -97.63,65.5 -160.99,65.5 -63.37,0 -117.02,-21.83 -160.98,-65.5 -43.96,-43.67 -65.93,-97.19 -65.93,-160.55 0,-63.37 21.97,-116.89 65.93,-160.55 43.96,-43.67 97.61,-65.5 160.98,-65.5 63.36,0 117.03,21.83 160.99,65.5 43.95,43.66 65.93,97.18 65.93,160.55 0,63.36 -21.98,116.88 -65.93,160.55zm-231.21 -87.77c18.86,18.84 42.26,28.25 70.23,28.25 27.97,0 51.38,-9.41 70.22,-28.25 18.83,-18.85 28.26,-43.1 28.26,-72.78 0,-29.69 -9.43,-53.94 -28.26,-72.8 -18.84,-18.84 -42.25,-28.25 -70.22,-28.25 -27.96,0 -51.37,9.41 -70.23,28.25 -18.83,18.86 -28.24,43.11 -28.24,72.8 0,29.68 9.41,53.94 28.24,72.78zm620.81 -298.83c45.67,0 83.78,15.69 114.31,47.08 30.55,31.41 45.82,74.79 45.82,130.15l0 262.89 -128.44 0 0 -244.05c0,-25.1 -7.01,-44.39 -20.99,-57.79 -13.98,-13.42 -31.83,-20.13 -53.52,-20.13 -24.55,0 -43.95,7.43 -58.22,22.27 -14.28,14.83 -21.4,36.81 -21.4,65.93l0 233.77 -128.44 0 0 -428.15 128.44 0 0 40.25c25.69,-34.83 66.5,-52.23 122.44,-52.23z"/>
   <path class="fil2" d="M2103.47 1446.29l0 10.05c0,18.6 -5.95,33.67 -17.86,45.22 -11.91,11.54 -27.29,17.31 -46.14,17.31 -20.11,0 -36.76,-6.54 -49.98,-19.63 -13.21,-13.09 -19.82,-29.07 -19.82,-47.93 0,-18.99 6.55,-35.05 19.64,-48.2 13.09,-13.14 29.31,-19.74 48.66,-19.74 12.16,0 23.26,2.78 33.3,8.29 10.05,5.52 17.88,12.87 23.46,22.06l-21.96 12.65c-3.11,-5.34 -7.78,-9.68 -14.05,-13.02 -6.27,-3.37 -13.24,-5.03 -20.93,-5.03 -12.4,0 -22.62,4.05 -30.62,12.18 -8,8.13 -12,18.38 -12,30.8 0,12.29 4.07,22.42 12.18,30.43 8.14,8 18.89,12 32.3,12 9.91,0 18.13,-2.2 24.65,-6.6 6.52,-4.41 10.96,-10.45 13.31,-18.15l-39.45 0 0 -22.7 65.31 0zm37.42 33.3c3.22,11.66 11.96,17.49 26.23,17.49 9.19,0 16.13,-3.08 20.85,-9.29l19.34 11.16c-9.18,13.28 -22.7,19.92 -40.56,19.92 -15.39,0 -27.73,-4.66 -37.03,-13.97 -9.31,-9.29 -13.96,-21.01 -13.96,-35.17 0,-14.01 4.6,-25.71 13.78,-35.07 9.18,-9.37 20.97,-14.06 35.35,-14.06 13.64,0 24.9,4.73 33.77,14.15 8.87,9.43 13.31,21.1 13.31,34.98 0,3.11 -0.3,6.39 -0.92,9.87l-70.15 0zm-0.39 -18.6l47.47 0c-1.38,-6.34 -4.2,-11.04 -8.47,-14.15 -4.29,-3.11 -9.16,-4.66 -14.62,-4.66 -6.45,0 -11.78,1.64 -15.99,4.93 -4.22,3.28 -7.01,7.9 -8.39,13.87zm139.95 -40.4c10.18,0 18.59,3.41 25.23,10.25 6.64,6.83 9.95,16.25 9.95,28.28l0 57.13 -24 0 0 -54.16c0,-6.19 -1.68,-10.93 -5.02,-14.23 -3.37,-3.29 -7.82,-4.94 -13.41,-4.94 -6.2,0 -11.16,1.93 -14.88,5.78 -3.72,3.84 -5.58,9.61 -5.58,17.3l0 50.25 -24.02 0 0 -93.04 24.02 0 0 10.42c5.83,-8.68 15.07,-13.04 27.72,-13.04zm75.94 59c3.23,11.66 11.96,17.49 26.23,17.49 9.19,0 16.13,-3.08 20.85,-9.29l19.34 11.16c-9.18,13.28 -22.7,19.92 -40.56,19.92 -15.39,0 -27.73,-4.66 -37.03,-13.97 -9.31,-9.29 -13.96,-21.01 -13.96,-35.17 0,-14.01 4.61,-25.71 13.78,-35.07 9.18,-9.37 20.97,-14.06 35.35,-14.06 13.64,0 24.9,4.73 33.77,14.15 8.87,9.43 13.31,21.1 13.31,34.98 0,3.11 -0.3,6.39 -0.93,9.87l-70.15 0zm-0.39 -18.6l47.47 0c-1.37,-6.34 -4.2,-11.04 -8.47,-14.15 -4.29,-3.11 -9.16,-4.66 -14.62,-4.66 -6.46,0 -11.78,1.64 -16,4.93 -4.22,3.28 -7.01,7.9 -8.39,13.87zm112.23 -21.79c2.24,-5.95 5.94,-10.42 11.07,-13.38 5.14,-3 10.89,-4.47 17.2,-4.47l0 26.8c-7.31,-0.87 -13.86,0.6 -19.62,4.46 -5.77,3.84 -8.66,10.23 -8.66,19.17l0 44.49 -24.01 0 0 -93.04 24.01 0 0 15.99zm109.42 -15.99l24.01 0 0 93.04 -24.01 0 0 -10.98c-7.19,9.06 -17.3,13.59 -30.33,13.59 -12.42,0 -23.06,-4.74 -31.93,-14.24 -8.87,-9.49 -13.31,-21.11 -13.31,-34.9 0,-13.76 4.44,-25.39 13.31,-34.88 8.87,-9.49 19.51,-14.25 31.93,-14.25 13.02,0 23.14,4.54 30.33,13.6l0 -10.98zm-44.29 65.41c4.84,4.9 10.97,7.36 18.41,7.36 7.45,0 13.63,-2.46 18.52,-7.36 4.91,-4.89 7.36,-11.2 7.36,-18.9 0,-7.7 -2.45,-13.97 -7.36,-18.88 -4.89,-4.9 -11.07,-7.35 -18.52,-7.35 -7.44,0 -13.58,2.44 -18.41,7.35 -4.84,4.91 -7.26,11.19 -7.26,18.88 0,7.7 2.42,14.01 7.26,18.9zm90.06 27.64l0 -135.85 24.02 0 0 135.85 -24.02 0zm155.41 2.61c-19.6,0 -35.79,-6.52 -48.58,-19.55 -12.77,-13.02 -19.17,-29.08 -19.17,-48.19 0,-19.24 6.41,-35.34 19.17,-48.3 12.79,-12.97 28.97,-19.46 48.58,-19.46 11.78,0 22.67,2.78 32.65,8.29 10,5.52 17.77,13 23.35,22.42l-22.14 12.84c-3.23,-5.83 -7.82,-10.38 -13.76,-13.68 -5.97,-3.29 -12.65,-4.92 -20.1,-4.92 -12.65,0 -22.87,3.97 -30.61,11.9 -7.77,7.95 -11.63,18.25 -11.63,30.9 0,12.52 3.87,22.76 11.63,30.7 7.74,7.94 17.96,11.91 30.61,11.91 7.45,0 14.17,-1.65 20.18,-4.94 6.04,-3.27 10.59,-7.78 13.68,-13.47l22.14 12.84c-5.58,9.42 -13.32,16.9 -23.25,22.41 -9.93,5.53 -20.84,8.29 -32.75,8.29zm150.54 -14.24c-9.55,9.5 -21.21,14.24 -34.98,14.24 -13.76,0 -25.39,-4.74 -34.88,-14.24 -9.5,-9.49 -14.25,-21.11 -14.25,-34.9 0,-13.76 4.75,-25.39 14.25,-34.88 9.5,-9.49 21.12,-14.25 34.88,-14.25 13.78,0 25.44,4.76 34.98,14.25 9.56,9.49 14.33,21.11 14.33,34.88 0,13.79 -4.78,25.41 -14.33,34.9zm-52.93 -16.46c4.77,4.83 10.75,7.26 17.94,7.26 7.21,0 13.22,-2.43 18.06,-7.26 4.83,-4.84 7.25,-10.99 7.25,-18.44 0,-7.44 -2.42,-13.58 -7.25,-18.41 -4.84,-4.83 -10.86,-7.26 -18.06,-7.26 -7.19,0 -13.17,2.43 -17.94,7.26 -4.79,4.84 -7.18,10.97 -7.18,18.41 0,7.45 2.39,13.6 7.18,18.44zm135.93 -67.57c10.18,0 18.59,3.41 25.23,10.25 6.64,6.83 9.95,16.25 9.95,28.28l0 57.13 -24 0 0 -54.16c0,-6.19 -1.68,-10.93 -5.02,-14.23 -3.37,-3.29 -7.82,-4.94 -13.41,-4.94 -6.2,0 -11.16,1.93 -14.88,5.78 -3.72,3.84 -5.58,9.61 -5.58,17.3l0 50.25 -24.02 0 0 -93.04 24.02 0 0 10.42c5.83,-8.68 15.07,-13.04 27.72,-13.04zm108.87 25.7l-21.04 0 0 38.7c0,3.22 0.81,5.58 2.42,7.06 1.62,1.5 3.99,2.34 7.08,2.53 3.11,0.19 6.96,0.15 11.54,-0.11l0 21.79c-16.5,1.86 -28.13,0.3 -34.9,-4.66 -6.75,-4.96 -10.13,-13.83 -10.13,-26.6l0 -38.7 -16.2 0 0 -23.08 16.2 0 0 -18.8 23.99 -7.25 0 26.05 21.04 0 0 23.08zm42.43 -7.08c2.23,-5.95 5.93,-10.42 11.07,-13.38 5.15,-3 10.89,-4.47 17.21,-4.47l0 26.8c-7.31,-0.87 -13.86,0.6 -19.63,4.46 -5.76,3.84 -8.65,10.23 -8.65,19.17l0 44.49 -24.02 0 0 -93.04 24.02 0 0 15.99zm109.42 -15.99l24.01 0 0 93.04 -24.01 0 0 -10.98c-7.19,9.06 -17.31,13.59 -30.33,13.59 -12.42,0 -23.05,-4.74 -31.93,-14.24 -8.87,-9.49 -13.31,-21.11 -13.31,-34.9 0,-13.76 4.44,-25.39 13.31,-34.88 8.87,-9.49 19.51,-14.25 31.93,-14.25 13.02,0 23.14,4.54 30.33,13.6l0 -10.98zm-44.3 65.41c4.84,4.9 10.97,7.36 18.42,7.36 7.44,0 13.63,-2.46 18.51,-7.36 4.91,-4.89 7.36,-11.2 7.36,-18.9 0,-7.7 -2.46,-13.97 -7.36,-18.88 -4.89,-4.9 -11.07,-7.35 -18.51,-7.35 -7.45,0 -13.58,2.44 -18.42,7.35 -4.84,4.91 -7.26,11.19 -7.26,18.88 0,7.7 2.42,14.01 7.26,18.9zm134.36 30.25c-14.01,0 -25.71,-4.73 -35.07,-14.16 -9.38,-9.42 -14.06,-21.08 -14.06,-34.98 0,-13.89 4.69,-25.55 14.06,-34.98 9.36,-9.42 21.05,-14.15 35.07,-14.15 9.06,0 17.3,2.19 24.75,6.52 7.45,4.34 13.09,10.19 16.94,17.5l-20.65 12.1c-1.87,-3.85 -4.69,-6.89 -8.47,-9.13 -3.78,-2.24 -8.03,-3.34 -12.75,-3.34 -7.19,0 -13.14,2.39 -17.86,7.16 -4.73,4.79 -7.08,10.89 -7.08,18.33 0,7.33 2.35,13.37 7.08,18.15 4.72,4.78 10.67,7.16 17.86,7.16 4.84,0 9.16,-1.08 12.94,-3.25 3.78,-2.17 6.61,-5.19 8.47,-9.02l20.84 11.9c-4.09,7.33 -9.86,13.19 -17.31,17.59 -7.45,4.4 -15.69,6.61 -24.75,6.61zm107.94 -72.58l-21.04 0 0 38.7c0,3.22 0.81,5.58 2.42,7.06 1.62,1.5 3.99,2.34 7.08,2.53 3.11,0.19 6.96,0.15 11.54,-0.11l0 21.79c-16.5,1.86 -28.13,0.3 -34.9,-4.66 -6.76,-4.96 -10.13,-13.83 -10.13,-26.6l0 -38.7 -16.2 0 0 -23.08 16.2 0 0 -18.8 23.99 -7.25 0 26.05 21.04 0 0 23.08zm28.84 -34.25c-3.97,0 -7.41,-1.45 -10.32,-4.37 -2.93,-2.92 -4.39,-6.37 -4.39,-10.33 0,-3.96 1.46,-7.44 4.39,-10.41 2.9,-2.98 6.35,-4.47 10.32,-4.47 4.1,0 7.6,1.49 10.52,4.47 2.91,2.97 4.37,6.45 4.37,10.41 0,3.97 -1.46,7.41 -4.37,10.33 -2.92,2.91 -6.42,4.37 -10.52,4.37zm-11.91 104.22l0 -93.04 24.01 0 0 93.04 -24.01 0zm97.71 -95.66c10.18,0 18.58,3.41 25.22,10.25 6.64,6.83 9.95,16.25 9.95,28.28l0 57.13 -24 0 0 -54.16c0,-6.19 -1.68,-10.93 -5.03,-14.23 -3.36,-3.29 -7.81,-4.94 -13.41,-4.94 -6.2,0 -11.16,1.93 -14.88,5.78 -3.72,3.84 -5.58,9.61 -5.58,17.3l0 50.25 -24.01 0 0 -93.04 24.01 0 0 10.42c5.83,-8.68 15.07,-13.04 27.73,-13.04zm126.91 2.62l23.46 0 0 88.58c0,14.4 -4.76,25.36 -14.25,32.93 -9.48,7.58 -20.93,11.36 -34.33,11.36 -10.05,0 -18.88,-1.92 -26.52,-5.76 -7.63,-3.85 -13.49,-9.5 -17.59,-16.94l20.47 -11.73c4.72,8.69 12.85,13.02 24.38,13.02 7.58,0 13.52,-1.99 17.88,-5.95 4.33,-3.97 6.5,-9.61 6.5,-16.93l0 -10.05c-7.08,9.43 -16.98,14.14 -29.78,14.14 -13.14,0 -24.16,-4.62 -33.04,-13.86 -8.87,-9.23 -13.31,-20.5 -13.31,-33.77 0,-13.16 4.47,-24.38 13.41,-33.69 8.92,-9.31 19.91,-13.96 32.93,-13.96 12.79,0 22.7,4.73 29.78,14.15l0 -11.53zm-44.74 63.37c4.89,4.78 11.12,7.16 18.7,7.16 7.56,0 13.79,-2.38 18.7,-7.16 4.89,-4.79 7.34,-10.89 7.34,-18.34 0,-7.32 -2.45,-13.37 -7.34,-18.14 -4.91,-4.78 -11.14,-7.18 -18.7,-7.18 -7.58,0 -13.81,2.41 -18.7,7.18 -4.91,4.76 -7.36,10.82 -7.36,18.14 0,7.45 2.46,13.55 7.36,18.34zm199.4 32.28c-19.61,0 -35.79,-6.52 -48.58,-19.55 -12.77,-13.02 -19.17,-29.08 -19.17,-48.19 0,-19.24 6.4,-35.34 19.17,-48.3 12.79,-12.97 28.97,-19.46 48.58,-19.46 11.78,0 22.66,2.78 32.65,8.29 10,5.52 17.77,13 23.36,22.42l-22.15 12.84c-3.23,-5.83 -7.82,-10.38 -13.76,-13.68 -5.97,-3.29 -12.65,-4.92 -20.09,-4.92 -12.65,0 -22.87,3.97 -30.62,11.9 -7.77,7.95 -11.63,18.25 -11.63,30.9 0,12.52 3.87,22.76 11.63,30.7 7.75,7.94 17.96,11.91 30.62,11.91 7.44,0 14.16,-1.65 20.18,-4.94 6.03,-3.27 10.59,-7.78 13.68,-13.47l22.15 12.84c-5.58,9.42 -13.33,16.9 -23.26,22.41 -9.93,5.53 -20.84,8.29 -32.75,8.29zm150.54 -14.24c-9.55,9.5 -21.2,14.24 -34.98,14.24 -13.76,0 -25.39,-4.74 -34.88,-14.24 -9.49,-9.49 -14.25,-21.11 -14.25,-34.9 0,-13.76 4.76,-25.39 14.25,-34.88 9.5,-9.49 21.12,-14.25 34.88,-14.25 13.78,0 25.44,4.76 34.98,14.25 9.56,9.49 14.33,21.11 14.33,34.88 0,13.79 -4.77,25.41 -14.33,34.9zm-52.93 -16.46c4.77,4.83 10.75,7.26 17.94,7.26 7.21,0 13.22,-2.43 18.06,-7.26 4.83,-4.84 7.25,-10.99 7.25,-18.44 0,-7.44 -2.42,-13.58 -7.25,-18.41 -4.84,-4.83 -10.86,-7.26 -18.06,-7.26 -7.19,0 -13.17,2.43 -17.94,7.26 -4.79,4.84 -7.18,10.97 -7.18,18.41 0,7.45 2.39,13.6 7.18,18.44zm187.12 -67.57c10.67,0 19.19,3.48 25.59,10.44 6.39,6.94 9.58,16.25 9.58,27.91l0 57.31 -24.01 0 0 -55.64c0,-5.6 -1.36,-9.93 -4.08,-13.04 -2.74,-3.1 -6.59,-4.66 -11.54,-4.66 -5.46,0 -9.71,1.81 -12.75,5.41 -3.03,3.6 -4.56,8.8 -4.56,15.62l0 52.29 -24.01 0 0 -55.64c0,-5.6 -1.36,-9.93 -4.08,-13.04 -2.74,-3.1 -6.59,-4.66 -11.54,-4.66 -5.33,0 -9.58,1.81 -12.74,5.41 -3.18,3.6 -4.76,8.8 -4.76,15.62l0 52.29 -24.01 0 0 -93.04 24.01 0 0 9.85c5.58,-8.3 14.2,-12.47 25.88,-12.47 11.41,0 19.84,4.47 25.3,13.41 6.2,-8.94 15.44,-13.41 27.73,-13.41zm109.79 0c12.53,0 23.24,4.76 32.11,14.25 8.87,9.49 13.31,21.11 13.31,34.88 0,13.79 -4.44,25.41 -13.31,34.9 -8.87,9.5 -19.58,14.24 -32.11,14.24 -13.02,0 -23.07,-4.53 -30.15,-13.59l0 48.2 -24.01 0 0 -130.27 24.01 0 0 10.98c7.08,-9.06 17.12,-13.6 30.15,-13.6zm-22.89 68.03c4.84,4.9 10.97,7.36 18.42,7.36 7.45,0 13.63,-2.46 18.51,-7.36 4.91,-4.89 7.36,-11.2 7.36,-18.9 0,-7.7 -2.46,-13.97 -7.36,-18.88 -4.89,-4.9 -11.07,-7.35 -18.51,-7.35 -7.45,0 -13.58,2.44 -18.42,7.35 -4.84,4.91 -7.26,11.19 -7.26,18.88 0,7.7 2.42,14.01 7.26,18.9zm155.95 -65.41l24.02 0 0 93.04 -24.02 0 0 -10.98c-7.19,9.06 -17.3,13.59 -30.33,13.59 -12.42,0 -23.05,-4.74 -31.93,-14.24 -8.87,-9.49 -13.31,-21.11 -13.31,-34.9 0,-13.76 4.43,-25.39 13.31,-34.88 8.87,-9.49 19.51,-14.25 31.93,-14.25 13.02,0 23.14,4.54 30.33,13.6l0 -10.98zm-44.29 65.41c4.84,4.9 10.97,7.36 18.41,7.36 7.45,0 13.63,-2.46 18.52,-7.36 4.91,-4.89 7.36,-11.2 7.36,-18.9 0,-7.7 -2.45,-13.97 -7.36,-18.88 -4.89,-4.9 -11.07,-7.35 -18.52,-7.35 -7.44,0 -13.58,2.44 -18.41,7.35 -4.84,4.91 -7.26,11.19 -7.26,18.88 0,7.7 2.42,14.01 7.26,18.9zm141.8 -68.03c10.18,0 18.59,3.41 25.23,10.25 6.64,6.83 9.95,16.25 9.95,28.28l0 57.13 -24 0 0 -54.16c0,-6.19 -1.68,-10.93 -5.02,-14.23 -3.36,-3.29 -7.82,-4.94 -13.41,-4.94 -6.2,0 -11.16,1.93 -14.88,5.78 -3.72,3.84 -5.58,9.61 -5.58,17.3l0 50.25 -24.02 0 0 -93.04 24.02 0 0 10.42c5.83,-8.68 15.07,-13.04 27.72,-13.04zm114.27 2.62l25.67 0 -33.93 93.2c-4.84,13.27 -11.26,22.94 -19.24,28.96 -8,6.02 -17.91,8.72 -29.82,8.11l0 -22.34c6.45,0.12 11.56,-1.24 15.34,-4.11 3.8,-2.83 6.81,-7.44 9.04,-13.76l-38.16 -90.06 26.25 0 24.25 62.53 20.6 -62.53z"/>
   <path class="fil0" d="M4503.87 877.41l128.44 0 0 428.14 -128.44 0 0 -40.24c-30.25,34.82 -72.79,52.23 -127.59,52.23 -56.51,0 -104.75,-21.84 -144.71,-65.5 -39.97,-43.67 -59.93,-97.21 -59.93,-160.56 0,-63.36 19.96,-116.89 59.93,-160.56 39.97,-43.66 88.21,-65.51 144.71,-65.51 54.8,0 97.34,17.42 127.59,52.23l0 -40.23zm-175.54 290.28c18.84,18.82 43.38,28.25 73.64,28.25 30.25,0 54.8,-9.43 73.64,-28.25 18.84,-18.85 28.25,-44.25 28.25,-76.22 0,-31.98 -9.41,-57.38 -28.25,-76.21 -18.84,-18.83 -43.4,-28.25 -73.64,-28.25 -30.26,0 -54.8,9.42 -73.64,28.25 -18.85,18.83 -28.25,44.23 -28.25,76.21 0,31.96 9.41,57.37 28.25,76.22z"/>
   <polygon class="fil0" points="3970.41,1305.55 3970.41,877.41 4098.85,877.41 4098.85,1305.55 "/>
   <path class="fil0" d="M3692.97 865.41c56.51,0 104.75,21.84 144.71,65.51 39.97,43.67 59.93,97.19 59.93,160.56 0,63.36 -19.97,116.89 -59.93,160.56 -39.97,43.66 -88.21,65.5 -144.71,65.5 -54.8,0 -97.33,-17.41 -127.59,-52.23l0 40.24 -128.44 0 0 -527.36 128.44 0 0 139.45c30.26,-34.81 72.79,-52.23 127.59,-52.23zm-98.9 302.28c19.13,18.82 43.52,28.25 73.2,28.25 29.69,0 54.09,-9.43 73.23,-28.25 19.12,-18.85 28.67,-44.25 28.67,-76.22 0,-31.98 -9.56,-57.38 -28.67,-76.21 -19.13,-18.83 -43.54,-28.25 -73.23,-28.25 -29.68,0 -54.07,9.42 -73.2,28.25 -19.13,18.83 -28.69,44.23 -28.69,76.21 0,31.96 9.56,57.37 28.69,76.22z"/>
   <path class="fil0" d="M3214.31 877.41l128.44 0 0 428.14 -128.44 0 0 -40.24c-30.25,34.82 -72.79,52.23 -127.59,52.23 -56.51,0 -104.74,-21.84 -144.71,-65.5 -39.97,-43.67 -59.93,-97.21 -59.93,-160.56 0,-63.36 19.97,-116.89 59.93,-160.56 39.97,-43.66 88.2,-65.51 144.71,-65.51 54.8,0 97.34,17.42 127.59,52.23l0 -40.23zm-175.54 290.28c18.84,18.82 43.38,28.25 73.64,28.25 30.25,0 54.8,-9.43 73.64,-28.25 18.84,-18.85 28.25,-44.25 28.25,-76.22 0,-31.98 -9.41,-57.38 -28.25,-76.21 -18.84,-18.83 -43.4,-28.25 -73.64,-28.25 -30.26,0 -54.8,9.42 -73.64,28.25 -18.84,18.83 -28.25,44.23 -28.25,76.21 0,31.96 9.41,57.37 28.25,76.22z"/>
   <path class="fil0" d="M2727.94 953.63c8,-27.4 24.12,-48.39 48.38,-62.95 24.26,-14.56 50.95,-21.83 80.06,-21.83l0 145.56c-31.39,-5.13 -60.66,0.14 -87.77,15.84 -27.11,15.69 -40.68,42.97 -40.68,81.78l0 193.52 -128.44 0 0 -428.14 128.44 0 0 76.22z"/>
   <path class="fil0" d="M2412.25 1305.55l-32.1 -94.19 -230.63 0 -29.98 94.19 -149.86 0 179.32 -527.36 223.71 0 179.69 527.36 -140.16 0zm-221.2 -222.63l145.27 0 -75.06 -220.08 -70.21 220.08z"/>
  </g>
 </g>
</svg>
